# xmcd
#
# Track frame offsets: 
#        150
#        15381
#        27629
#        38508
#        56239
#        75952
#        88341
#        101222
#        118943
#        130801
#
# Disc length: 2009 seconds
#
# Revision: 0
# Processed by: cddbd v1.5.1PL0 Copyright (c) Steve Scherf et al.
# Submitted via: ExactAudioCopy v0.95a3
#
DISCID=7f07d70a
DTITLE=Various Artist - Two golden voices of recitations
DYEAR=2003
DGENRE=Country
TTITLE0=Porter Wagoner/Skid row Joe
TTITLE1=Red Sovine/Colorado kool aid
TTITLE2=Porter Wagoner/Supper time
TTITLE3=Red Sovine/The gear jammer and the hobo
TTITLE4=Porter Wagoner/Strawberry roan
TTITLE5=Red Sovine/Old rivers
TTITLE6=Porter Wagoner/Be careful od stones
TTITLE7=Red Sovine/Giddy up go
TTITLE8=Porter Wagoner/The farmer and the Lord
TTITLE9=Red Sovine/Daddy
EXTD=
EXTT0=
EXTT1=
EXTT2=
EXTT3=
EXTT4=
EXTT5=
EXTT6=
EXTT7=
EXTT8=
EXTT9=
PLAYORDER=
